<svg xmlns="http://www.w3.org/2000/svg">
   <symbol fill="none" viewBox="0 0 20 20" id="chat">
    <path d="M6.66667 8.33325H6.675M10 8.33325H10.0083M13.3333 8.33325H13.3417M7.5 13.3333H4.16667C3.24619 13.3333 2.5 12.5871 2.5 11.6666V4.99992C2.5 4.07944 3.24619 3.33325 4.16667 3.33325H15.8333C16.7538 3.33325 17.5 4.07944 17.5 4.99992V11.6666C17.5 12.5871 16.7538 13.3333 15.8333 13.3333H11.6667L7.5 17.4999V13.3333Z" stroke="#64696E" stroke-width="2" stroke-linecap="round" stroke-linejoin="round"></path>
  </symbol>
  
  <symbol fill="none" viewBox="0 0 16 15" id="star">
    <path d="M7.45119 0.885341C7.62172 0.371552 8.37828 0.371554 8.54881 0.885341L9.69969 4.35268C9.91341 4.99654 10.5217 5.423 11.1976 5.423H14.9219C15.5023 5.423 15.6908 6.11789 15.2646 6.42102L12.2516 8.56396C11.6984 8.95735 11.4615 9.66065 11.6759 10.3066L12.8268 13.7739C12.9843 14.2484 12.4168 14.729 11.9353 14.3866L8.92226 12.2437C8.37164 11.8521 7.62836 11.8521 7.07774 12.2437L4.0647 14.3866C3.58323 14.729 3.01571 14.2484 3.17321 13.7739L4.32409 10.3066C4.53848 9.66065 4.30157 8.95735 3.74845 8.56396L0.735405 6.42102C0.309196 6.1179 0.497692 5.423 1.07808 5.423H4.80241C5.47828 5.423 6.08659 4.99654 6.30031 4.35268L7.45119 0.885341Z" fill="#FB923C" stroke="#FB923C"></path>
  </symbol>

 <symbol fill="none" viewBox="0 0 20 20" id="arrow">
    <path d="M2.87115 12.5C3.88914 15.6939 6.80463 18 10.2424 18C14.5268 18 18 14.4183 18 10C18 5.58172 14.5268 2 10.2424 2C7.37103 2 4.86399 3.60879 3.52267 6M5.87879 7H2V3" stroke="#64696E" stroke-width="2" stroke-linecap="round" stroke-linejoin="round"></path>
    <path d="M8.77273 14.6667V6.66675H12.5909C13.0972 6.66675 13.5828 6.84736 13.9408 7.16885C14.2989 7.49034 14.5 7.92638 14.5 8.38103C14.5 8.83569 14.2989 9.27173 13.9408 9.59322C13.5828 9.91471 13.0972 10.0953 12.5909 10.0953H7.5M12.5909 12.381H7.5" stroke="#64696E" stroke-width="2" stroke-linecap="round" stroke-linejoin="round" fill="white"></path>
  </symbol>

   <symbol fill="none" viewBox="0 0 32 32" id="gift">
    <circle cx="16" cy="16" r="16" fill="#FB923C"></circle>
    <path d="M16 12V25M16 12C16 12 16 10.5072 16 10C16 8.89543 16.8954 8 18 8C19.1046 8 20 8.89543 20 10C20 11.1046 19.1046 12 18 12C17.4027 12 16 12 16 12ZM16 12C16 12 16 10.0629 16 9.5C16 8.11929 14.8807 7 13.5 7C12.1193 7 11 8.11929 11 9.5C11 10.8807 12.1193 12 13.5 12C14.3178 12 16 12 16 12ZM9 16H23M9 16C7.89543 16 7 15.1046 7 14C7 12.8954 7.89543 12 9 12H23C24.1046 12 25 12.8954 25 14C25 15.1046 24.1046 16 23 16M9 16L9 23C9 24.1046 9.89543 25 11 25H21C22.1046 25 23 24.1046 23 23V16" stroke="white" stroke-width="2" stroke-linecap="round" stroke-linejoin="round"></path>
  </symbol>

   <symbol fill="none" viewBox="0 0 24 24" id="heart">
    <path d="M4.31802 6.31802C2.56066 8.07538 2.56066 10.9246 4.31802 12.682L12.0001 20.364L19.682 12.682C21.4393 10.9246 21.4393 8.07538 19.682 6.31802C17.9246 4.56066 15.0754 4.56066 13.318 6.31802L12.0001 7.63609L10.682 6.31802C8.92462 4.56066 6.07538 4.56066 4.31802 6.31802Z" fill="white" stroke="#64696E" stroke-width="2" stroke-linecap="round" stroke-linejoin="round"></path>
  </symbol>

   <symbol  viewBox="0 0 32 32" id="heart-red">
    <path id="Layer" d="m10.6 6c-1.8-0.1-3.5 0.5-4.8 1.8-2.6 2.6-2.4 7 0.5 9.8l1 1.1 9.4 9.3 9.3-9.3 1-1.1c2.9-2.8 3.1-7.2 0.5-9.8-2.5-2.6-6.9-2.4-9.8 0.5l-1 1-1.1-1c-1.4-1.4-3.2-2.2-5-2.3z" fill="red"></path>
  </symbol>

   <symbol viewBox="0 0 30 30" id="arrow-pre">
    <path d="M2.29289 15.7071C1.90237 15.3166 1.90237 14.6834 2.29289 14.2929L8.65685 7.92893C9.04738 7.53841 9.68054 7.53841 10.0711 7.92893C10.4616 8.31946 10.4616 8.95262 10.0711 9.34315L4.41421 15L10.0711 20.6569C10.4616 21.0474 10.4616 21.6805 10.0711 22.0711C9.68054 22.4616 9.04738 22.4616 8.65685 22.0711L2.29289 15.7071ZM28 16H3V14H28V16Z" fill="currentColor"></path>
  </symbol>

  <symbol viewBox="0 0 30 30" id="arrow-next">
    <path d="M28.7071 15.7071C29.0976 15.3166 29.0976 14.6834 28.7071 14.2929L22.3431 7.92893C21.9526 7.53841 21.3195 7.53841 20.9289 7.92893C20.5384 8.31946 20.5384 8.95262 20.9289 9.34315L26.5858 15L20.9289 20.6569C20.5384 21.0474 20.5384 21.6805 20.9289 22.0711C21.3195 22.4616 21.9526 22.4616 22.3431 22.0711L28.7071 15.7071ZM3 16H28V14H3V16Z" fill="currentColor"></path>
  </symbol>
</svg>